HIERARCHY
ROOT pelvis
{
  OFFSET 0 100 0
  CHANNELS 6 Xposition Yposition Zposition Zrotation Xrotation Yrotation
  JOINT pelvis_right_femur
  {
    OFFSET -10.78128 -3.44521 -0.5502486
    CHANNELS 3 Zrotation Xrotation Yrotation
    JOINT right_femur_tibia
    {
      OFFSET -0.8047443 -44.0398 -0.1307829
      CHANNELS 3 Zrotation Xrotation Yrotation
      JOINT right_tibia_foot
      {
        OFFSET 3.006224 -47.83518 -5
        CHANNELS 3 Zrotation Xrotation Yrotation
        End Site
        {
          OFFSET 0 -5 15
        }
      }
    }
  }
  JOINT pelvis_left_femur
  {
    OFFSET 10.78128 -3.44521 -0.5502486
    CHANNELS 3 Zrotation Xrotation Yrotation
    JOINT left_femur_tibia
    {
      OFFSET 0.8047443 -44.0398 -0.1307829
      CHANNELS 3 Zrotation Xrotation Yrotation
      JOINT left_tibia_foot
      {
        OFFSET -4.370144 -48.10324 -4.275266
        CHANNELS 3 Zrotation Xrotation Yrotation
        End Site
        {
          OFFSET 0 -5 15
        }
      }
    }
  }
  JOINT pelvis_spine1
  {
    OFFSET 0 6.468898 -3.129235
    CHANNELS 3 Zrotation Xrotation Yrotation
    JOINT spine1
    {
      OFFSET 0 23.15396 4.99043
      CHANNELS 3 Zrotation Xrotation Yrotation
      JOINT spine2
      {
        OFFSET 0 20.79997 -5.064912
        CHANNELS 3 Zrotation Xrotation Yrotation
        JOINT neck
        {
          OFFSET 0 14.38658 9.616178
          CHANNELS 3 Zrotation Xrotation Yrotation
          End Site
          {
            OFFSET 0 20 0
          }
        }
      }
      JOINT right_manubrium
      {
        OFFSET -5.722621 16.35077 3.967754
        CHANNELS 3 Zrotation Xrotation Yrotation
        JOINT right_clavicle
        {
          OFFSET -13.16364 1.694482 -4.693211
          CHANNELS 3 Zrotation Xrotation Yrotation
          JOINT right_humerus
          {
            OFFSET -28.5034 -0.3100689 -2.792744
            CHANNELS 3 Zrotation Xrotation Yrotation
            JOINT right_radius
            {
              OFFSET -25.15693 0.02248979 -1.271978
              CHANNELS 3 Zrotation Xrotation Yrotation
              End Site
              {
                OFFSET -15 0 0
              }
            }
          }
        }
      }
      JOINT left_manubrium
      {
        OFFSET 5.722621 16.35077 3.967754
        CHANNELS 3 Zrotation Xrotation Yrotation
        JOINT left_clavicle
        {
          OFFSET 13.16364 1.694482 -4.693211
          CHANNELS 3 Zrotation Xrotation Yrotation
          JOINT left_humerus
          {
            OFFSET 29.39168 -1.063119 -2.237045
            CHANNELS 3 Zrotation Xrotation Yrotation
            JOINT left_radius
            {
              OFFSET 24.59957 -0.9528479 0.9047498
              CHANNELS 3 Zrotation Xrotation Yrotation
              End Site
              {
                OFFSET 15 -0 -0
              }
            }
          }
        }
      }
    }
  }
}
MOTION
Frames: 21
Frame Time: 0.0416666666667
217.3564 -76.9799 933.074 -4.824991 4.961487 40.85198 11.7792 -18.64467 -2.658857 -0 27.4371 -0 -25.93546 11.70402 14.87507 -0.03338778 -17.06525 4.902466 -0 40.40993 -0 42.49242 4.233132 -10.25468 2.800688 -3.909739 8.888291 1.078729 15.06073 -6.165102 2.428586 17.46271 0.2556729 -4.585801 -24.71405 6.958545 -9.973833 -36.56816 10.45382 93.66408 11.91387 -6.677496 -0 0 32.28905 -22.91437 17.80058 20.24204 -0.9337678 -18.64114 -4.118087 -96.87047 14.88886 45.51979 0 0 -14.55067 -1.184295 12.14056 18.25187
222.4982 -76.61819 935.4112 -4.918997 4.868306 41.94918 11.7792 -18.64467 -2.658857 -0 27.4371 -0 -25.93546 11.70402 14.87507 -0.03338778 -17.06525 4.902466 -0 40.40993 -0 42.49242 4.233132 -10.25468 2.800688 -3.909739 8.888291 1.078729 15.06073 -6.165102 2.428586 17.46271 0.2556729 -4.585801 -24.71405 6.958545 -9.973833 -36.56816 10.45382 93.66408 11.91387 -6.677496 -0 0 32.28905 -22.91437 17.80058 20.24204 -0.9337678 -18.64114 -4.118087 -96.87047 14.88886 45.51979 0 0 -14.55067 -1.184295 12.14056 18.25187
227.6839 -76.25649 937.6495 -5.011182 4.773348 43.04606 11.7792 -18.64467 -2.658857 -0 27.4371 -0 -25.93546 11.70402 14.87507 -0.03338778 -17.06525 4.902466 -0 40.40993 -0 42.49242 4.233132 -10.25468 2.800688 -3.909739 8.888291 1.078729 15.06073 -6.165102 2.428586 17.46271 0.2556729 -4.585801 -24.71405 6.958545 -9.973833 -36.56816 10.45382 93.66408 11.91387 -6.677496 -0 0 32.28905 -22.91437 17.80058 20.24204 -0.9337678 -18.64114 -4.118087 -96.87047 14.88886 45.51979 0 0 -14.55067 -1.184295 12.14056 18.25187
232.9114 -75.89478 939.7882 -5.101514 4.67665 44.14264 11.7792 -18.64467 -2.658857 -0 27.4371 -0 -25.93546 11.70402 14.87507 -0.03338778 -17.06525 4.902466 -0 40.40993 -0 42.49242 4.233132 -10.25468 2.800688 -3.909739 8.888291 1.078729 15.06073 -6.165102 2.428586 17.46271 0.2556729 -4.585801 -24.71405 6.958545 -9.973833 -36.56816 10.45382 93.66408 11.91387 -6.677496 -0 0 32.28905 -22.91437 17.80058 20.24204 -0.9337678 -18.64114 -4.118087 -96.87047 14.88886 45.51979 0 0 -14.55067 -1.184295 12.14056 18.25187
238.1789 -75.53307 941.8264 -5.18996 4.578247 45.23892 11.7792 -18.64467 -2.658857 -0 27.4371 -0 -25.93546 11.70402 14.87507 -0.03338778 -17.06525 4.902466 -0 40.40993 -0 42.49242 4.233132 -10.25468 2.800688 -3.909739 8.888291 1.078729 15.06073 -6.165102 2.428586 17.46271 0.2556729 -4.585801 -24.71405 6.958545 -9.973833 -36.56816 10.45382 93.66408 11.91387 -6.677496 -0 0 32.28905 -22.91437 17.80058 20.24204 -0.9337678 -18.64114 -4.118087 -96.87047 14.88886 45.51979 0 0 -14.55067 -1.184295 12.14056 18.25187
243.4845 -75.17137 943.7633 -5.276489 4.478175 46.33489 11.7792 -18.64467 -2.658857 -0 27.4371 -0 -25.93546 11.70402 14.87507 -0.03338778 -17.06525 4.902466 -0 40.40993 -0 42.49242 4.233132 -10.25468 2.800688 -3.909739 8.888291 1.078729 15.06073 -6.165102 2.428586 17.46271 0.2556729 -4.585801 -24.71405 6.958545 -9.973833 -36.56816 10.45382 93.66408 11.91387 -6.677496 -0 0 32.28905 -22.91437 17.80058 20.24204 -0.9337678 -18.64114 -4.118087 -96.87047 14.88886 45.51979 0 0 -14.55067 -1.184295 12.14056 18.25187
248.8262 -74.80966 945.5983 -5.361071 4.376472 47.43056 11.7792 -18.64467 -2.658857 -0 27.4371 -0 -25.93546 11.70402 14.87507 -0.03338778 -17.06525 4.902466 -0 40.40993 -0 42.49242 4.233132 -10.25468 2.800688 -3.909739 8.888291 1.078729 15.06073 -6.165102 2.428586 17.46271 0.2556729 -4.585801 -24.71405 6.958545 -9.973833 -36.56816 10.45382 93.66408 11.91387 -6.677496 -0 0 32.28905 -22.91437 17.80058 20.24204 -0.9337678 -18.64114 -4.118087 -96.87047 14.88886 45.51979 0 0 -14.55067 -1.184295 12.14056 18.25187
254.202 -74.44796 947.3307 -5.443677 4.273175 48.52592 11.7792 -18.64467 -2.658857 -0 27.4371 -0 -25.93546 11.70402 14.87507 -0.03338778 -17.06525 4.902466 -0 40.40993 -0 42.49242 4.233132 -10.25468 2.800688 -3.909739 8.888291 1.078729 15.06073 -6.165102 2.428586 17.46271 0.2556729 -4.585801 -24.71405 6.958545 -9.973833 -36.56816 10.45382 93.66408 11.91387 -6.677496 -0 0 32.28905 -22.91437 17.80058 20.24204 -0.9337678 -18.64114 -4.118087 -96.87047 14.88886 45.51979 0 0 -14.55067 -1.184295 12.14056 18.25187
259.6101 -74.08625 948.9598 -5.524276 4.168323 49.621 11.7792 -18.64467 -2.658857 -0 27.4371 -0 -25.93546 11.70402 14.87507 -0.03338778 -17.06525 4.902466 -0 40.40993 -0 42.49242 4.233132 -10.25468 2.800688 -3.909739 8.888291 1.078729 15.06073 -6.165102 2.428586 17.46271 0.2556729 -4.585801 -24.71405 6.958545 -9.973833 -36.56816 10.45382 93.66408 11.91387 -6.677496 -0 0 32.28905 -22.91437 17.80058 20.24204 -0.9337678 -18.64114 -4.118087 -96.87047 14.88886 45.51979 0 0 -14.55067 -1.184295 12.14056 18.25187
265.0483 -73.72455 950.4851 -5.60284 4.061954 50.71577 11.7792 -18.64467 -2.658857 -0 27.4371 -0 -25.93546 11.70402 14.87507 -0.03338778 -17.06525 4.902466 -0 40.40993 -0 42.49242 4.233132 -10.25468 2.800688 -3.909739 8.888291 1.078729 15.06073 -6.165102 2.428586 17.46271 0.2556729 -4.585801 -24.71405 6.958545 -9.973833 -36.56816 10.45382 93.66408 11.91387 -6.677496 -0 0 32.28905 -22.91437 17.80058 20.24204 -0.9337678 -18.64114 -4.118087 -96.87047 14.88886 45.51979 0 0 -14.55067 -1.184295 12.14056 18.25187
270.5147 -73.36284 951.906 -5.679343 3.954107 51.81026 11.7792 -18.64467 -2.658857 -0 27.4371 -0 -25.93546 11.70402 14.87507 -0.03338778 -17.06525 4.902466 -0 40.40993 -0 42.49242 4.233132 -10.25468 2.800688 -3.909739 8.888291 1.078729 15.06073 -6.165102 2.428586 17.46271 0.2556729 -4.585801 -24.71405 6.958545 -9.973833 -36.56816 10.45382 93.66408 11.91387 -6.677496 -0 0 32.28905 -22.91437 17.80058 20.24204 -0.9337678 -18.64114 -4.118087 -96.87047 14.88886 45.51979 0 0 -14.55067 -1.184295 12.14056 18.25187
276.0074 -73.00113 953.2219 -5.753757 3.844822 52.90446 11.7792 -18.64467 -2.658857 -0 27.4371 -0 -25.93546 11.70402 14.87507 -0.03338778 -17.06525 4.902466 -0 40.40993 -0 42.49242 4.233132 -10.25468 2.800688 -3.909739 8.888291 1.078729 15.06073 -6.165102 2.428586 17.46271 0.2556729 -4.585801 -24.71405 6.958545 -9.973833 -36.56816 10.45382 93.66408 11.91387 -6.677496 -0 0 32.28905 -22.91437 17.80058 20.24204 -0.9337678 -18.64114 -4.118087 -96.87047 14.88886 45.51979 0 0 -14.55067 -1.184295 12.14056 18.25187
281.5242 -72.63943 954.4324 -5.826057 3.73414 53.99837 11.7792 -18.64467 -2.658857 -0 27.4371 -0 -25.93546 11.70402 14.87507 -0.03338778 -17.06525 4.902466 -0 40.40993 -0 42.49242 4.233132 -10.25468 2.800688 -3.909739 8.888291 1.078729 15.06073 -6.165102 2.428586 17.46271 0.2556729 -4.585801 -24.71405 6.958545 -9.973833 -36.56816 10.45382 93.66408 11.91387 -6.677496 -0 0 32.28905 -22.91437 17.80058 20.24204 -0.9337678 -18.64114 -4.118087 -96.87047 14.88886 45.51979 0 0 -14.55067 -1.184295 12.14056 18.25187
287.0632 -72.27772 955.5371 -5.896218 3.622101 55.09201 11.7792 -18.64467 -2.658857 -0 27.4371 -0 -25.93546 11.70402 14.87507 -0.03338778 -17.06525 4.902466 -0 40.40993 -0 42.49242 4.233132 -10.25468 2.800688 -3.909739 8.888291 1.078729 15.06073 -6.165102 2.428586 17.46271 0.2556729 -4.585801 -24.71405 6.958545 -9.973833 -36.56816 10.45382 93.66408 11.91387 -6.677496 -0 0 32.28905 -22.91437 17.80058 20.24204 -0.9337678 -18.64114 -4.118087 -96.87047 14.88886 45.51979 0 0 -14.55067 -1.184295 12.14056 18.25187
292.6224 -71.91602 956.5355 -5.964215 3.508746 56.18538 11.7792 -18.64467 -2.658857 -0 27.4371 -0 -25.93546 11.70402 14.87507 -0.03338778 -17.06525 4.902466 -0 40.40993 -0 42.49242 4.233132 -10.25468 2.800688 -3.909739 8.888291 1.078729 15.06073 -6.165102 2.428586 17.46271 0.2556729 -4.585801 -24.71405 6.958545 -9.973833 -36.56816 10.45382 93.66408 11.91387 -6.677496 -0 0 32.28905 -22.91437 17.80058 20.24204 -0.9337678 -18.64114 -4.118087 -96.87047 14.88886 45.51979 0 0 -14.55067 -1.184295 12.14056 18.25187
298.1996 -71.55431 957.4273 -6.030024 3.394117 57.27848 11.7792 -18.64467 -2.658857 -0 27.4371 -0 -25.93546 11.70402 14.87507 -0.03338778 -17.06525 4.902466 -0 40.40993 -0 42.49242 4.233132 -10.25468 2.800688 -3.909739 8.888291 1.078729 15.06073 -6.165102 2.428586 17.46271 0.2556729 -4.585801 -24.71405 6.958545 -9.973833 -36.56816 10.45382 93.66408 11.91387 -6.677496 -0 0 32.28905 -22.91437 17.80058 20.24204 -0.9337678 -18.64114 -4.118087 -96.87047 14.88886 45.51979 0 0 -14.55067 -1.184295 12.14056 18.25187
303.7929 -71.1926 958.2122 -6.093623 3.278255 58.37132 11.7792 -18.64467 -2.658857 -0 27.4371 -0 -25.93546 11.70402 14.87507 -0.03338778 -17.06525 4.902466 -0 40.40993 -0 42.49242 4.233132 -10.25468 2.800688 -3.909739 8.888291 1.078729 15.06073 -6.165102 2.428586 17.46271 0.2556729 -4.585801 -24.71405 6.958545 -9.973833 -36.56816 10.45382 93.66408 11.91387 -6.677496 -0 0 32.28905 -22.91437 17.80058 20.24204 -0.9337678 -18.64114 -4.118087 -96.87047 14.88886 45.51979 0 0 -14.55067 -1.184295 12.14056 18.25187
309.4002 -70.8309 958.8898 -6.15499 3.161204 59.46391 11.7792 -18.64467 -2.658857 -0 27.4371 -0 -25.93546 11.70402 14.87507 -0.03338778 -17.06525 4.902466 -0 40.40993 -0 42.49242 4.233132 -10.25468 2.800688 -3.909739 8.888291 1.078729 15.06073 -6.165102 2.428586 17.46271 0.2556729 -4.585801 -24.71405 6.958545 -9.973833 -36.56816 10.45382 93.66408 11.91387 -6.677496 -0 0 32.28905 -22.91437 17.80058 20.24204 -0.9337678 -18.64114 -4.118087 -96.87047 14.88886 45.51979 0 0 -14.55067 -1.184295 12.14056 18.25187
315.0194 -70.46919 959.4599 -6.214105 3.043006 60.55625 11.7792 -18.64467 -2.658857 -0 27.4371 -0 -25.93546 11.70402 14.87507 -0.03338778 -17.06525 4.902466 -0 40.40993 -0 42.49242 4.233132 -10.25468 2.800688 -3.909739 8.888291 1.078729 15.06073 -6.165102 2.428586 17.46271 0.2556729 -4.585801 -24.71405 6.958545 -9.973833 -36.56816 10.45382 93.66408 11.91387 -6.677496 -0 0 32.28905 -22.91437 17.80058 20.24204 -0.9337678 -18.64114 -4.118087 -96.87047 14.88886 45.51979 0 0 -14.55067 -1.184295 12.14056 18.25187
320.6485 -70.10749 959.9223 -6.270946 2.923705 61.64834 11.7792 -18.64467 -2.658857 -0 27.4371 -0 -25.93546 11.70402 14.87507 -0.03338778 -17.06525 4.902466 -0 40.40993 -0 42.49242 4.233132 -10.25468 2.800688 -3.909739 8.888291 1.078729 15.06073 -6.165102 2.428586 17.46271 0.2556729 -4.585801 -24.71405 6.958545 -9.973833 -36.56816 10.45382 93.66408 11.91387 -6.677496 -0 0 32.28905 -22.91437 17.80058 20.24204 -0.9337678 -18.64114 -4.118087 -96.87047 14.88886 45.51979 0 0 -14.55067 -1.184295 12.14056 18.25187
326.2855 -69.74578 960.2769 -6.325494 2.803343 62.74021 11.7792 -18.64467 -2.658857 -0 27.4371 -0 -25.93546 11.70402 14.87507 -0.03338778 -17.06525 4.902466 -0 40.40993 -0 42.49242 4.233132 -10.25468 2.800688 -3.909739 8.888291 1.078729 15.06073 -6.165102 2.428586 17.46271 0.2556729 -4.585801 -24.71405 6.958545 -9.973833 -36.56816 10.45382 93.66408 11.91387 -6.677496 -0 0 32.28905 -22.91437 17.80058 20.24204 -0.9337678 -18.64114 -4.118087 -96.87047 14.88886 45.51979 0 0 -14.55067 -1.184295 12.14056 18.25187
